<svg width="62" height="24" viewBox="0 0 62 24" fill="none" xmlns="http://www.w3.org/2000/svg">
<path d="M1.39403 19.5741L1.93444 24H20.8537L20.2345 18.9314H11.4135L11.3364 18.3033L19.4612 12.596L18.9184 8.16113H0L0.619118 13.2298H9.45474L9.53264 13.8635L1.39403 19.5741Z" fill="black"/>
<path d="M21.1162 8.16113L23.0507 24H41.9845L40.05 8.16113H21.1162Z" fill="#AA8FFF"/>
<path d="M61.8406 13.8636C61.404 10.3032 58.6217 8.14572 54.8404 8.16122H42.2471L44.1807 23.9993H49.8461L49.4582 20.832H55.4538C60.1739 20.832 62.3331 17.876 61.8406 13.8636ZM54.8428 16.3922L48.9194 16.3988L48.4553 12.5977L54.412 12.6026C55.8133 12.6189 56.5298 13.4117 56.645 14.4974C56.7164 15.1948 56.3983 16.3914 54.8428 16.3914V16.3922Z" fill="black"/>
<path d="M27.3704 6.05279C28.3669 4.97743 28.1932 3.18661 26.9825 2.05287C25.7717 0.919138 23.9824 0.871813 22.9859 1.94717C21.9895 3.02253 22.1631 4.81336 23.3739 5.94709C24.5846 7.08083 26.374 7.12814 27.3704 6.05279Z" fill="black"/>
</svg>
